<svg width="36px" height="48px" viewBox="0 0 36 48" version="1.1" xmlns="http://www.w3.org/2000/svg">
  <g id="Campus-Check-in" stroke="none" stroke-width="1" fill="none" fill-rule="evenodd">
    <g transform="translate(-170.000000, -172.000000)" fill="#2196F3" fill-rule="nonzero" id="map-marker-alt">
      <g transform="translate(170.000000, 172.000000)">
        <path
            d="M18,0 C8.0625,0 0,8.0625 0,18 C0,25.2571875 2.53125,27.28125 16.1503125,47.0315625 C16.5706045,47.638403 17.261826,48.0004863 18,48.0004863 C18.738174,48.0004863 19.4293955,47.638403 19.8496875,47.0315625 C33.46875,27.28125 36,25.2571875 36,18 C36,8.0625 27.9375,0 18,0 Z M18,27 C13.0294373,27 9,22.9705627 9,18 C9,13.0294373 13.0294373,9 18,9 C22.9705627,9 27,13.0294373 27,18 C27,20.3869484 26.0517884,22.6761336 24.363961,24.363961 C22.6761336,26.0517884 20.3869484,27 18,27 Z"
            id="Shape" opacity="0.4"></path>
        <path
            d="M18,24 C14.6862915,24 12,21.3137085 12,18 C12,14.6862915 14.6862915,12 18,12 C21.3137085,12 24,14.6862915 24,18 C24,21.3137085 21.3137085,24 18,24 L18,24 Z"
            id="Path"></path>
      </g>
    </g>
  </g>
</svg>