<svg width="36px" height="48px" viewBox="0 0 36 48" version="1.1" xmlns="http://www.w3.org/2000/svg">
  <g id="Campus-Check-in" stroke="none" stroke-width="1" fill="none" fill-rule="evenodd">
    <g transform="translate(-170.000000, -342.000000)" fill="#8BC34A" fill-rule="nonzero" id="Group-2">
      <g transform="translate(84.000000, 326.000000)">
        <g id="Group-3" transform="translate(64.000000, 0.000000)">
          <g id="map-marker-smile" transform="translate(22.000000, 16.000000)">
            <path
                d="M18,0 C8.1,0 0,8.1 0,18 C0,25.2 2.4,27.3 16.2,47.1 C16.6249224,47.6665631 17.2917961,48 18,48 C18.7082039,48 19.3750776,47.6665631 19.8,47.1 C33.6,27.3 36,25.2 36,18 C36,8.1 27.9,0 18,0 Z M24,10.98375 C25.3896865,10.98375 26.51625,12.1103135 26.51625,13.5 C26.51625,14.8896865 25.3896865,16.01625 24,16.01625 C22.6103135,16.01625 21.48375,14.8896865 21.48375,13.5 C21.48375,12.1103135 22.6103135,10.98375 24,10.98375 Z M12,10.98375 C13.3896865,10.98375 14.51625,12.1103135 14.51625,13.5 C14.51625,14.8896865 13.3896865,16.01625 12,16.01625 C10.6103135,16.01625 9.48375,14.8896865 9.48375,13.5 C9.48375,12.1103135 10.6103135,10.98375 12,10.98375 Z M27.3909375,24.2025 C25.0346747,26.9327026 21.6068493,28.5022511 18.0004687,28.5022511 C14.3940882,28.5022511 10.9662628,26.9327026 8.61,24.2025 C8.09865541,23.570654 8.1836174,22.6464871 8.80159298,22.1184635 C9.41956856,21.59044 10.3456736,21.65071 10.89,22.254375 C12.6762573,24.3174604 15.2706054,25.5028744 17.9995312,25.5028744 C20.7284571,25.5028744 23.3228052,24.3174604 25.1090625,22.254375 C25.457229,21.8467573 25.9964095,21.6558476 26.5235001,21.7535597 C27.0505906,21.8512719 27.4855136,22.2227611 27.6644376,22.728091 C27.8433617,23.2334209 27.739104,23.7958198 27.3909375,24.2034375 L27.3909375,24.2025 Z"
                id="Shape" opacity="0.4"></path>
            <path
                d="M24,16.01625 C25.3896865,16.01625 26.51625,14.8896865 26.51625,13.5 C26.51625,12.1103135 25.3896865,10.98375 24,10.98375 C22.6103135,10.98375 21.48375,12.1103135 21.48375,13.5 C21.48375,14.8896865 22.6103135,16.01625 24,16.01625 Z M12,16.01625 C13.3896865,16.01625 14.51625,14.8896865 14.51625,13.5 C14.51625,12.1103135 13.3896865,10.98375 12,10.98375 C10.6103135,10.98375 9.48375,12.1103135 9.48375,13.5 C9.48375,14.8896865 10.6103135,16.01625 12,16.01625 Z M27.2240625,22.08375 C26.9214868,21.8253671 26.5286497,21.6977866 26.1319957,21.7290829 C25.7353418,21.7603791 25.3673733,21.9479877 25.1090625,22.250625 C23.3228052,24.3137104 20.7284571,25.4991244 17.9995312,25.4991244 C15.2706054,25.4991244 12.6762573,24.3137104 10.89,22.250625 C10.3456736,21.64696 9.41956856,21.58669 8.80159298,22.1147135 C8.1836174,22.6427371 8.09865541,23.566904 8.61,24.19875 C10.9662628,26.9289526 14.3940882,28.4985011 18.0004687,28.4985011 C21.6068493,28.4985011 25.0346747,26.9289526 27.3909375,24.19875 C27.6493204,23.8961743 27.7769009,23.5033372 27.7456046,23.1066832 C27.7143084,22.7100293 27.5266998,22.3420608 27.2240625,22.08375 L27.2240625,22.08375 Z"
                id="Shape"></path>
          </g>
        </g>
      </g>
    </g>
  </g>
</svg>