<?xml version="1.0" encoding="UTF-8"?>
<svg width="24px" height="23px" viewBox="0 0 24 23" version="1.1" xmlns="http://www.w3.org/2000/svg">
  <!-- Generator: Sketch 53.2 (72643) - https://sketchapp.com -->
  <title>university</title>
  <desc>Created with Sketch.</desc>
  <g id="Campus-Check-in" stroke="none" stroke-width="1" fill="none" fill-rule="evenodd">
    <g id="Campus-Check-in-02" transform="translate(-89.000000, -63.000000)" fill="#424242" fill-rule="nonzero">
      <g id="Group-5" transform="translate(89.000000, 61.000000)">
        <g id="university" transform="translate(0.000000, 2.000000)">
          <path
              d="M7.2,8 L7.2,17.6 L10.4,17.6 L10.4,8 L13.6,8 L13.6,17.6 L16.8,17.6 L16.8,8 L20,8 L20,17.6 L21.8,17.6 C22.1313708,17.6 22.4,17.8686292 22.4,18.2 L22.4,19.2 L1.6,19.2 L1.6,18.2 C1.6,17.8686292 1.86862915,17.6 2.2,17.6 L4,17.6 L4,8 L7.2,8 Z"
              id="Path" opacity="0.4"></path>
          <path
              d="M23.753,4.4305 L12.153,0.0305 C12.0550316,-0.0100570713 11.9449684,-0.0100570713 11.847,0.0305 L0.247,4.4305 C0.0975188873,4.49238233 3.3246604e-05,4.63821612 3.55271368e-15,4.8 L3.55271368e-15,5.6 C3.55271368e-15,5.8209139 0.1790861,6 0.4,6 L1.6,6 L1.6,6.6 C1.6,6.93137085 1.86862915,7.2 2.2,7.2 L21.8,7.2 C22.1313708,7.2 22.4,6.93137085 22.4,6.6 L22.4,6 L23.6,6 C23.8209139,6 24,5.8209139 24,5.6 L24,4.8 C23.9999668,4.63821612 23.9024811,4.49238233 23.753,4.4305 L23.753,4.4305 Z M22.8,20 L1.2,20 C0.5372583,20 1.77635684e-16,20.5372583 0,21.2 L0,22 C0,22.2209139 0.1790861,22.4 0.4,22.4 L23.6,22.4 C23.8209139,22.4 24,22.2209139 24,22 L24,21.2 C24,20.5372583 23.4627417,20 22.8,20 Z"
              id="Shape"></path>
        </g>
      </g>
    </g>
  </g>
</svg>